<svg width="246" height="268" viewBox="0 0 246 268" fill="none" xmlns="http://www.w3.org/2000/svg">
<g clip-path="url(#clip0_2485_8)">
<rect width="246" height="267.141" rx="15" fill="#F3F3F1"/>
<path d="M154.803 51.7794C159.901 45.5195 165.796 39.4494 170.917 33.13C173.566 29.8612 177.529 27.6076 180.333 24.8051C186.668 18.4749 193.924 13.0264 201.832 8.82262C204.18 7.57582 206.042 7.87201 208.42 8.87375C211.639 13.3036 212.547 18.8596 213.742 24.0907C219.153 47.7677 217.056 67.2358 214.613 90.8312C217.214 94.7296 218.645 99.0009 219.884 103.484C220.386 103.788 222.035 104.637 222.639 104.86C226.746 106.377 224.052 112.459 225.139 115.21C226.656 119.055 230.946 122.983 233.134 127.158C236.114 132.844 239.684 138.96 241.941 144.911C242.891 147.415 244.767 154.068 243.491 156.459C242.038 159.184 237.835 155.961 236.376 156.353C236.054 157.583 239.397 165.366 240.175 167.416C242.157 172.638 244.231 188.23 241.653 193.219C241.524 193.024 241.299 192.451 241.194 192.206C240.415 191.605 240.782 191.769 239.78 191.616C238.131 192.299 238.831 192.105 237.685 193.116L237.573 193.214C235.779 191.999 232.734 188.632 231.223 186.915C231.825 196.945 229.346 211.099 223.494 219.374C222.226 221.166 219.764 222.183 218.115 220.248C216.603 218.475 216.281 215.697 215.428 213.527L212.636 216.086L212.153 215.186C211.461 215.034 211.723 215.047 210.956 215.418C210.526 216.084 210.379 216.197 210.347 216.955L211.023 217.881C209.34 219.758 203.882 223.168 204.425 225.097C207.187 234.911 210.654 243.762 211.558 254.135C212.139 260.801 205.206 260.162 204.67 254.973C203.04 247.68 201.898 235.416 198.279 228.934C192.517 234.096 183.142 238.345 175.938 241.287C172.464 242.707 167.93 245.02 164.472 246.013C138.626 253.436 110.392 252.66 84.5551 245.611C80.5782 244.354 76.6743 242.7 72.7647 241.26C66.4005 238.915 59.9191 236.548 54.0645 233.078C51.3359 231.461 46.2955 229.399 44.6223 226.813C43.2945 227.63 41.3743 236.543 40.8915 238.576C39.8999 242.751 39.1553 247.018 38.3793 251.239C38.0534 253.014 37.8854 255.125 37.2896 256.811C37.0515 257.486 36.6083 258.212 35.9852 258.591C35.5118 258.88 34.865 258.953 34.3394 258.774C33.5343 258.502 31.548 257.647 31.2534 256.941C29.9156 253.733 37.1776 226.491 38.8094 222.327C37.2668 221.142 32.7056 216.659 31.8549 216.475C30.1358 216.785 28.1689 221.458 26.9948 222.968C26.9765 221.926 27.1767 221.709 26.604 221.148C25.4978 221.962 25.1043 222.401 23.7551 222.545L23.5181 222.568C24.142 222.775 25.3378 223.057 25.6852 223.524C23.7896 224.461 23.5591 222.626 21.4947 222.144C21.3461 222.051 21.232 221.99 21.1182 221.852C14.6072 213.98 12.5795 200.151 13.2585 190.354C11.2266 192.494 7.30472 199.562 3.88607 197.118C-2.79653 192.34 8.11123 159.164 7.81463 158.339L7.38914 158.262C3.79826 161.375 4.50461 161.17 -0.645722 160.223C-1.18717 157.304 -0.63172 154.757 0.359612 152.002C3.76666 142.537 7.24483 133.009 11.5004 123.89C12.4489 121.858 13.933 119.207 13.8232 116.951L13.4493 116.78C10.6183 118.525 9.78697 127.007 4.85316 123.801C0.809263 121.174 6.12976 110.568 10.1705 109.43C11.4627 108.291 16.9331 108.67 17.8098 108.118C20.3123 106.544 23.8343 96.376 25.1741 93.8404C23.9173 89.4694 21.7231 66.3748 23.1211 62.7245C23.2275 62.4467 23.4764 61.8943 23.6892 61.7041C23.7322 61.6656 31.9969 59.0926 33.3164 58.4741C35.3008 55.6034 36.5678 52.8696 34.7178 49.3114C32.3266 44.7128 24.0459 47.9094 25.2263 40.6078C26.9294 30.0756 29.2001 18.036 36.3286 9.75383C40.5097 6.72192 52.6765 16.5664 55.4274 19.0943C59.1936 23.6498 66.0534 27.9242 69.5743 32.271C75.0436 39.023 83.5909 46.7082 88.4339 53.4334C93.2059 52.1521 97.0539 51.665 101.312 50.5759C102.388 46.2827 105.529 35.3564 109.835 33.4371C112.944 33.5888 112.858 37.0975 114.351 38.2664C117.429 35.0079 117.446 31.2686 122.101 27.8957C136.517 17.4516 132.437 31.7032 130.978 40.1526C133.606 38.4504 139.406 35.7665 142.518 35.9425C153.971 36.5901 150.899 44.8593 144.977 50.2325C148.133 50.64 151.636 51.2706 154.803 51.7794ZM7.77585 151.697C10.1546 150.383 12.3536 149.667 14.8139 148.543C16.1021 148.892 17.635 149.17 18.6146 150.031C19.6512 152.139 17.4157 155.082 16.2923 157.15C11.1847 166.55 9.72053 176.694 7.97947 186.992C8.2464 186.721 8.52132 186.457 8.80394 186.201C10.6303 184.552 15.3755 180.445 17.8166 180.746C19.1402 180.734 20.3294 182.548 20.3585 183.821C20.5422 191.805 19.3361 199.726 21.9187 207.533C22.5316 209.385 22.9394 211.73 24.2022 213.377C27.8765 212.826 28.0394 198.787 39.1633 213.875C41.5566 217.121 56.5522 227.138 60.9537 229.358C77.9964 237.954 98.7596 242.262 117.654 244.325C138.224 245.914 162.622 241.019 181.119 232.057C187.183 229.129 193.542 224.182 198.76 219.907C204.614 215.254 208.405 209.274 213.865 204.397C216.203 202.308 219.497 207.827 220.413 209.424C225.957 200.13 224.723 190.159 224.699 179.95C224.698 179.487 224.754 178.495 225.043 178.163C225.482 177.662 226.105 177.36 226.77 177.327C229.88 177.165 233.983 181.278 236.233 183.318C234.518 177.093 234.597 171.132 232.016 164.542C230.156 159.792 227.925 155.162 226.223 150.558C224.386 145.589 230.805 145.482 234.259 147.961L234.489 148.128L234.799 147.983C235.849 144.184 226.24 127.994 223.436 124.523C223.082 124.084 221.666 123.237 221.105 122.917L219.925 120.04C218.998 120.783 217.763 121.531 216.748 122.184C214.937 125.757 215.127 128.912 214.62 132.874C213.621 140.673 213.209 147.833 209.507 154.915C207.182 153.936 205.043 156.638 203.533 158.295L203.385 158.818C203.682 159.073 203.887 159.282 204.228 159.471C194.914 165.076 181.359 164.641 170.809 164.528C149.714 164.304 144.191 155.464 139.199 136.207C138.15 132.16 138.471 129.453 135.543 126.423L131.662 125.18C129.927 125.813 127.985 126.341 126.198 126.866C123.944 130.095 123.905 132.937 123.162 136.721C121.484 145.265 119.768 156.034 112.061 161.361C109.806 162.919 105.353 165.231 102.687 165.807C91.5489 168.217 77.1009 168.599 66.0329 166.728C50.2989 164.395 48.1475 148.612 46.3836 135.602C45.5127 129.177 45.416 126.186 38.2963 124.995L35.1513 122.041C31.6997 121.473 24.4977 119.865 21.6381 118.059C20.5918 121.994 17.3621 126.965 15.6067 130.728C12.4917 137.519 9.87452 144.527 7.77585 151.697ZM115.497 114.63C107.563 109.173 88.0988 110.569 77.8926 110.723C59.6134 111.653 51.0088 111.053 53.4408 133.231C54.2111 140.257 55.4559 152.947 61.3804 157.384C66.0725 160.898 79.9938 161.106 85.5911 160.713C87.882 160.547 90.1698 160.339 92.4533 160.09C98.5 159.894 105.242 159.008 109.484 154.202C115.519 147.366 116.407 137.08 117.359 128.402C117.967 122.858 117.348 119.826 115.497 114.63ZM105.903 56.6566C99.4007 57.9374 92.899 59.4523 86.4384 60.9121L84.3127 59.8663C82.8006 57.3456 81.3721 56.6095 79.9231 54.6013C68.5687 38.8659 54.4449 27.3339 39.3324 15.2554C39.0147 16.4238 38.5544 17.485 38.1885 18.6183C36.0759 25.1605 34.0705 31.6955 32.851 38.4718C32.851 38.4718 31.9193 39.3732 31.8232 39.4662C35.5195 41.649 39.6225 44.0252 40.93 48.4267C42.634 54.1626 41.0156 61.373 35.5435 64.5722C34.188 65.3647 29.8577 66.7325 29.7519 67.2133C28.097 74.7407 31.937 88.1011 31.4904 95.4072C31.3398 97.8712 26.5399 107.039 25.3817 109.362C28.5781 110.191 32.9006 110.294 35.7853 111.511C39.491 108.733 46.1304 107.975 50.7772 107.288C70.9674 104.306 92.6766 101.776 112.837 105.94C119.949 107.409 121.216 111.009 124.375 116.493C129.563 116.289 131.21 114.001 136.351 116.716C137.475 114.791 139.806 109.355 141.396 108.218C153.953 99.2336 181.332 101.227 196.289 101.425C201.545 101.494 207.522 102.623 212.528 102.794C212.826 100.744 207.806 93.851 207.864 91.6645C208.046 84.7787 209.991 77.7452 210.21 70.8237C210.596 58.5716 210.932 46.0366 208.78 33.9182C207.558 27.5238 205.467 20.9409 204.131 14.4837C202.139 16.1053 199.529 17.5868 197.355 19.3227C188.457 26.4062 179.998 34.0257 172.028 42.1387C169.757 44.4937 166.401 48.4538 164.376 51.0322C161.494 54.7014 161.382 55.7959 157.659 59.1286C154.109 59.1559 144.231 57.0593 139.651 56.5767C138.959 57.7899 138.218 59.0116 137.506 60.2171C135.749 60.3614 135.015 60.6235 133.741 59.5469C131.726 55.031 144.158 44.7093 144.011 41.8127C143.087 41.0784 142.204 41.3787 140.972 41.6293C138.709 42.0851 136.534 42.9047 134.534 44.0568C131.685 45.6607 124.802 52.4778 122.077 49.1842C121.551 47.7973 124.424 40.7207 124.971 38.7966C125.703 36.2199 126.415 33.2158 127.188 30.6648L122.744 35.5195L122.052 34.8927C122.218 34.2248 122.259 34.1404 122.646 33.5706L122.403 33.5552C121.638 34.2793 120.592 35.1223 120.231 36.0736L120.404 36.7241L120.614 36.7738C120.936 36.8516 121.21 36.952 121.521 37.0632C118.725 41.5931 117.092 45.4719 115.24 50.4196C115.018 51.0125 113.93 52.0979 113.46 52.571C108.43 50.3192 110.28 46.7256 107.975 45.7018C107.305 46.6358 106.053 55.175 105.903 56.6566ZM173.408 107.577C166.083 108.272 158.475 108.308 151.43 110.37C145.19 112.197 144.18 118.598 144.841 124.512C145.894 133.938 148.117 146.82 155.063 153.903C160.064 158.268 172.968 157.728 179.455 157.697C184.318 157.657 198.487 156.861 201.545 152.92C207.757 144.915 211.159 118.735 204.124 110.765C200.604 106.776 179.118 107.256 173.627 107.564L173.408 107.577ZM48.7672 118.754C49.5363 117.821 49.4097 116.364 49.5412 114.965C46.4712 114.068 45.2358 114.196 42.0485 114.407C40.9007 115.633 40.3129 116.919 41.4622 118.311C43.5985 119.244 46.4039 118.878 48.7672 118.754ZM217.688 113.441C219.202 112.613 219.973 112.171 219.184 110.203C217.793 108.991 214.568 109.46 212.576 109.538C211.734 110.101 211.28 110.325 210.78 111.208C210.54 114.238 215.795 113.743 217.688 113.441Z" fill="black" fill-opacity="0.984314"/>
<path d="M138.91 157.48C142.612 157.108 147.532 157.009 149.455 160.88C152.38 166.766 147.525 168.605 142.83 170.097C140.931 170.7 141.517 175.536 140.366 177.134C139.537 178.284 137.96 178.957 137.394 180.197C134.535 190.27 147.891 193.718 154.837 195.654C158.719 194.097 162.952 194.296 166.301 190.642C167.733 189.079 168.861 186.364 170.685 185.173C171.657 184.959 171.781 184.947 172.766 185.196C175.236 187.397 170.291 192.708 168.686 194.505C162.198 201.821 148.143 200.767 140.671 195.601C139.559 194.832 136.689 191.764 135.418 190.628C131.481 195.719 130.015 197.016 124.601 199.994C114.136 205.9 96.7766 206.294 88.5408 195.148C87.5911 193.862 87.0444 191.488 87.4845 189.875C88.1204 189.107 87.7848 189.295 88.729 189.145C91.3798 189.82 93.5863 193.322 95.5415 195.19C99.5187 198.989 103.342 199.663 108.386 199.731C114.851 199.999 119.953 198.17 125.015 194.199C128.72 191.293 132.594 189.022 132.711 183.563C132.791 179.857 129.682 177.895 127.237 175.498C127.196 174.189 127.231 172.905 126.821 171.662C124.717 168.687 113.428 173.161 118.223 160.409C125.416 156.145 130.426 158.275 138.91 157.48ZM131.155 171.837C131.151 175.728 131.422 175.763 134.608 177.86C141.627 174.022 135.541 169.512 141.008 166.733L141.159 166.655C142.413 166.02 145.12 165.964 146.602 165.861C146.572 160.666 146.566 160.4 141.309 160.07C136.466 160.628 131.527 160.496 126.659 160.553C122.852 160.598 120.406 161.502 120.423 165.716C120.678 166.226 120.953 166.858 121.593 166.922C124.916 167.255 131.579 166.076 131.155 171.837Z" fill="black" fill-opacity="0.976471"/>
<path d="M146.378 214.404C145.105 216.176 140.228 218.503 137.9 219.202C132.514 220.664 125.847 220.587 120.64 218.513C118.101 217.811 119.002 213.526 120.901 214.017C125.889 215.307 129.095 216.183 134.293 215.896C139.164 215.628 145.216 207.74 148.137 207.358C148.947 207.526 149.511 207.556 150.09 208.16C150.149 209.112 150.068 208.907 149.457 209.868L149.051 209.489L148.087 210.061C147.701 209.688 147.817 209.784 147.649 209.198L147.478 210.125C147.284 211.187 144.987 213.501 145.401 214.284L146.04 213.915L146.378 214.404Z" fill="black" fill-opacity="0.972549"/>
<path d="M81.6344 174.033C84.5184 173.911 98.122 173.932 99.534 176.111C98.6012 177.763 87.9854 175.946 85.5825 175.988C78.4343 176.113 59.9352 176.76 53.8511 179.917C52.6413 180.629 39.7609 184.452 38.9199 184.078L38.9616 183.822C40.3481 182.623 43.5967 181.363 45.3246 180.688C57.0836 176.092 69.1147 174.503 81.6344 174.033Z" fill="black"/>
<path d="M168.615 178.306C172.647 178.309 176.671 178.648 180.647 179.319C186.437 180.299 208.301 186.772 211.352 191.059L211.242 191.383C210.41 191.309 209.205 190.793 208.382 190.485C204.927 189.503 201.71 187.543 198.349 186.41C190.633 183.821 182.354 181.738 174.21 181.279C172.466 181.181 166.098 181.448 165.682 179.615C166.463 178.466 167.334 178.462 168.615 178.306Z" fill="black" fill-opacity="0.984314"/>
<path d="M182.839 170.903C192.781 170.918 207.803 171.939 216.86 176.186L216.938 176.537C216.36 176.814 215.87 176.906 215.224 176.721C209.941 175.209 204.613 174.471 199.192 173.596C191.345 172.763 183.438 172.673 175.575 173.329C173.395 173.516 165.444 175.397 164.164 173.979L164.404 173.452C166.62 171.546 179.443 171.051 182.839 170.903Z" fill="black"/>
<path d="M54.3008 193.96C64.677 187.358 84.527 181.142 97.3469 181.714C97.8405 181.736 98.0835 181.985 98.3718 182.34C97.6746 183.37 89.5006 184.153 87.7969 184.408C80.2888 185.529 73.2642 187.438 66.2406 190.341C62.5061 191.852 59.6745 192.739 56.246 195.125L54.3008 193.96Z" fill="black" fill-opacity="0.980392"/>
<path d="M30.777 153.154C31.9939 153.078 32.1858 152.91 33.018 153.517C32.6245 154.613 29.6397 156.781 28.6838 158.022C27.1384 160.027 25.8964 162.081 24.5517 164.212C24.3906 164.66 24.2771 164.714 23.9614 165.087L23.5738 164.866C22.6786 160.714 27.2955 154.994 30.777 153.154Z" fill="black" fill-opacity="0.94902"/>
<path d="M195.992 205.097L197.001 205.328L197.32 205.862C197.545 209.088 194.81 213.995 192.873 216.534L192.501 216.541L192.075 216.112C191.959 214.647 195.148 206.599 195.992 205.097Z" fill="black" fill-opacity="0.984314"/>
<path d="M52.9731 207.607C53.4482 207.734 53.5754 207.834 53.9858 208.077C54.5005 210.167 56.705 217.038 56.5587 218.713C53.0364 217.493 52.3294 210.765 52.9731 207.607Z" fill="black" fill-opacity="0.960784"/>
<path d="M32.5589 137.887L33.324 138.253L33.51 138.8C33.0634 140.042 28.0584 143.497 26.469 144.914L25.5604 144.828L25.2305 144.37C25.4697 142.057 30.5817 138.902 32.5589 137.887Z" fill="black" fill-opacity="0.956863"/>
<path d="M30.3733 165.424L31.3281 165.789C31.6002 167.208 28.7232 173.66 27.9763 175.549C27.3255 175.497 27.5722 175.575 27.027 175.134C26.6882 172.314 28.5265 167.533 30.3733 165.424Z" fill="black" fill-opacity="0.972549"/>
<path d="M222.592 165.044L222.106 164.769C221.086 162.7 219.083 161.068 219.016 159.516L219.442 159.214C222.022 159.535 224.224 162.165 224.976 164.541C223.924 164.243 223.796 163.997 222.974 164.349L222.592 165.044Z" fill="black" fill-opacity="0.933333"/>
<path d="M56.2455 195.125C54.0353 196.651 48.6374 199.952 46.1309 200.526C46.2298 199.79 53.1846 194.893 54.3003 193.96L56.2455 195.125Z" fill="black" fill-opacity="0.984314"/>
<path d="M64.4499 216.115C66.5611 219.664 68.2118 220.6 69.7264 224.654C67.9448 223.416 64.3954 219.923 63.4848 219.431C63.4335 217.753 63.3491 217.332 64.4499 216.115Z" fill="black" fill-opacity="0.952941"/>
<path d="M203.602 199.744C203.927 199.897 204.016 200.12 204.21 200.427C204.438 202.398 203.592 206.975 202.51 208.51C201.085 207.478 202.008 203.259 202.276 201.666C202.421 200.802 202.965 200.305 203.602 199.744Z" fill="black" fill-opacity="0.988235"/>
<path d="M63.485 219.432C62.2116 218.169 60.602 214.603 61.1336 212.907L61.6398 212.818C62.9477 213.543 63.3415 214.751 64.45 216.115C63.3492 217.333 63.4336 217.754 63.485 219.432Z" fill="black" fill-opacity="0.933333"/>
<path d="M146.376 214.404L146.038 213.915L145.399 214.284C144.985 213.5 147.283 211.187 147.477 210.125L147.647 209.197C147.816 209.784 147.699 209.687 148.085 210.06L149.049 209.488L149.456 209.867C148.615 211.372 147.685 213.329 146.376 214.404Z" fill="black" fill-opacity="0.952941"/>
<path d="M222.594 165.045L222.975 164.35C223.798 163.997 223.925 164.243 224.978 164.541C225.59 165.879 225.764 165.712 225.593 166.957C224.55 167.232 223.314 165.754 222.594 165.045Z" fill="black" fill-opacity="0.952941"/>
<path d="M158.996 182.678C160.013 182.591 160.753 182.601 161.563 183.142C161.684 184.1 161.591 183.891 161.014 184.9C160.104 185.259 160.488 185.245 159.572 184.974C158.968 184.19 159.034 183.672 158.996 182.678Z" fill="black" fill-opacity="0.952941"/>
<path d="M155.547 174.671C156.901 174.909 158.17 175.293 158.233 176.785C157.278 176.791 156.458 176.904 155.682 176.368C155.28 175.418 155.358 175.831 155.547 174.671Z" fill="black" fill-opacity="0.976471"/>
<path d="M46.6588 30.2925C47.0826 30.6963 49.5526 32.9119 49.6604 33.0816C55.6042 42.43 65.8891 60.0333 66.4373 70.7297C62.6235 70.7619 54.9962 68.8646 52.2219 70.0618L52.0009 70.5056C52.3637 71.2904 55.6921 73.5154 57.2848 75.3007C54.0731 77.2023 50.6437 78.6493 47.3008 80.3513C45.313 81.3634 42.0619 84.9505 40.237 84.5948C39.5223 80.9736 48.6428 75.956 51.4978 74.7206C49.1893 73.2576 46.3337 72.4825 45.473 70.3747C45.3743 69.3232 45.6667 68.7485 46.0303 67.7575C51.3316 65.5145 55.7651 65.0009 61.2591 66.4585C60.1543 60.5352 54.5097 48.4043 51.3692 43.0154C49.4245 39.6785 46.2405 35.2188 44.6594 31.6229L46.6588 30.2925Z" fill="black" fill-opacity="0.968627"/>
<path d="M199.275 27.541C199.507 27.7321 199.562 27.8718 199.643 28.1516C200.253 30.2748 188.87 45.968 187.151 49.1007C184.541 53.8582 182.751 59.0109 180.167 63.7946C183.399 63.0083 194.847 61.6078 195.905 65.6394C195.463 68.2101 192.574 69.9614 190.553 71.4028C193.42 72.8113 201.666 77.3902 201.076 81.1632L200.501 81.3092C199.321 80.9699 198.911 80.525 197.965 79.7256C196.627 78.7933 193.951 76.5851 192.634 75.9115C190.403 74.7705 187.533 74.5783 185.348 72.7913C184.356 70.4748 189.06 68.254 188.972 66.1827C185.327 65.3121 173.631 71.9882 176.223 64.2706C179.469 54.6019 190.834 32.4773 199.275 27.541Z" fill="black" fill-opacity="0.980392"/>
<path d="M85.191 88.4524C89.4018 88.1861 101.837 90.6718 102.371 95.8735C102.062 96.9364 100.841 98.1507 100.076 99.0308C97.14 96.5449 92.565 94.6812 88.6691 94.3204C85.7562 94.3196 82.3685 94.1599 79.519 94.6931C76.9623 95.172 72.0329 99.8815 69.8078 96.4576C69.0467 90.3735 81.1243 89.0542 85.191 88.4524Z" fill="black" fill-opacity="0.972549"/>
<path d="M165.559 84.696C170.972 84.0201 178.293 85.7526 182.152 89.7172C182.233 90.7596 182.421 91.689 181.948 92.6047C179.541 94.5383 172.023 90.2445 167.573 89.9642C166.139 90.6883 164.172 90.7969 162.463 91.5002C160.274 92.3284 158.188 93.4554 156.017 94.3227C154.751 94.8286 152.952 94.4867 152.089 93.4343C151.497 88.1316 161.695 85.9419 165.559 84.696Z" fill="black" fill-opacity="0.968627"/>
<path d="M122.714 72.8711C123.395 72.9221 123.528 72.9689 124.188 73.17C126.649 75.6596 128.246 84.3398 127.094 87.6836L126.472 87.5872C125.776 86.7853 122.662 73.8467 122.714 72.8711Z" fill="black" fill-opacity="0.972549"/>
<path d="M110.469 77.9932C114.843 78.1549 118.723 86.1785 119.331 89.8962C118.697 90.0194 118.621 90.0074 118.013 89.7881C116.447 88.346 115.127 84.8924 113.658 82.9531C112.672 81.6515 110.559 79.4217 110.469 77.9932Z" fill="black" fill-opacity="0.94902"/>
<path d="M139.801 75.1021C141.439 75.918 138.127 87.1374 136.699 88.5132C134.528 85.458 137.524 77.7383 139.801 75.1021Z" fill="black" fill-opacity="0.988235"/>
<path d="M44.6597 31.6231C44.2362 30.5437 43.72 29.7552 44.6771 28.9185C45.864 29.2096 45.657 29.3026 46.6591 30.2928L44.6597 31.6231Z" fill="black" fill-opacity="0.976471"/>
<path d="M84.6609 120.948C84.95 120.92 85.2398 120.896 85.5295 120.876C90.9212 120.503 96.417 121.652 100.557 125.297C104.967 129.18 107.512 134.992 107.85 140.832C107.932 142.236 107.854 144.293 106.758 145.35C105.199 146.855 92.8072 145.248 89.6941 145.184C82.7769 145.052 75.9476 146.014 69.1163 146.895C68.7972 146.801 68.0651 146.447 67.8369 146.238C63.7625 142.507 68.4703 131.8 71.2158 128.339C74.879 123.721 78.9315 121.591 84.6609 120.948ZM91.4286 142.16C93.4796 142.237 96.1912 142.265 98.1749 142.513C99.4363 142.612 103.417 143.143 104.298 142.885C106.104 140.002 100.372 127.65 96.6575 126.731C95.0464 126.333 91.5518 124.063 89.6656 123.768C89.8176 124.562 90.253 125.641 89.5829 126.249C87.7423 127.918 86.0406 131.311 88.2696 133.43C90.5357 135.584 92.117 132.889 93.7705 131.675C94.4396 132.523 94.2482 135.095 94.1244 136.175C93.8786 138.324 92.5625 140.352 91.4286 142.16ZM69.487 143.656C70.7852 143.527 72.6383 143.4 73.8726 143.137C75.1585 143.001 80.4053 142.53 81.3502 142.251C78.5847 139.242 79.1705 139.623 77.9305 136.057C76.6917 132.493 79.9008 127.346 79.5338 125.551L79.3048 125.342C74.117 129.759 70.1909 134.296 69.6031 141.569C69.5495 142.264 69.5107 142.959 69.487 143.656Z" fill="black" fill-opacity="0.988235"/>
<path d="M168.19 117.887C174.273 117.431 179.728 117.746 184.426 122.066C189.023 126.293 192.202 131.625 192.987 137.899C193.332 139.302 192.076 142.159 190.403 142.154C184.869 142.138 179.169 141.794 173.623 142.069C170.333 142.345 167.054 142.747 163.794 143.273C162.376 143.502 156.036 144.625 155.025 144.522C147.795 143.506 152.652 129.914 154.994 126.292C157.869 121.845 163.02 118.989 168.19 117.887ZM173.064 139.006C175.632 138.875 177.943 138.759 180.525 138.805C183.293 138.884 186.163 138.926 188.918 139.112C187.771 132.871 186.312 127.616 180.781 123.64C178.03 121.661 172.785 120.615 169.423 120.852C169.353 122.319 169.675 122.237 171.029 122.801L171.306 123.409L171.092 123.802C170.121 123.895 169.3 123.791 168.664 124.587C168.073 125.326 167.536 127.323 167.833 128.221C168.831 131.235 172.687 131.348 173.926 128.359L174.429 128.325C175.9 130.266 173.961 136.862 173.064 139.006ZM154.599 141.382C156.165 141.284 157.619 141.249 159.144 140.864C160.541 140.615 161.725 140.423 163.095 140.011C161.754 138.433 160.449 136.826 159.179 135.19C158.793 132.705 158.912 130.506 159.007 127.99C159.009 127.933 158.658 127.409 158.507 127.276C155.45 131.47 154.769 136.359 154.599 141.382Z" fill="black" fill-opacity="0.984314"/>
<path d="M204.228 159.471C203.887 159.281 203.682 159.072 203.385 158.818L203.532 158.294C205.043 156.637 207.182 153.936 209.507 154.915C208.63 156.357 205.67 158.719 204.228 159.471Z" fill="black" fill-opacity="0.937255"/>
<path d="M121.52 37.0637C121.21 36.9525 120.935 36.8521 120.613 36.7743L120.403 36.7246L120.23 36.0741C120.592 35.1228 121.637 34.2797 122.402 33.5557L122.645 33.5711C122.258 34.1409 122.217 34.2253 122.051 34.8932L122.743 35.52C122.48 35.8805 121.828 36.8558 121.52 37.0637Z" fill="black" fill-opacity="0.945098"/>
<path d="M21.4941 222.144C23.5586 222.626 23.789 224.461 25.6846 223.524C25.3373 223.057 24.1415 222.774 23.5175 222.568L23.7545 222.545C25.1037 222.401 25.4973 221.961 26.6035 221.147C27.1762 221.708 26.976 221.926 26.9942 222.968C25.1938 225.983 22.8485 224.496 21.4941 222.144Z" fill="black" fill-opacity="0.933333"/>
<path d="M237.572 193.214L237.684 193.116C238.83 192.105 238.13 192.299 239.779 191.616C240.781 191.768 240.414 191.605 241.194 192.205C241.298 192.451 241.523 193.024 241.652 193.219C240.58 194.057 238.6 194.108 237.572 193.214Z" fill="black" fill-opacity="0.933333"/>
<path d="M211.022 217.881L210.346 216.954C210.377 216.197 210.524 216.083 210.955 215.417C211.721 215.046 211.46 215.033 212.151 215.186L212.635 216.086C212.181 216.629 211.549 217.451 211.022 217.881Z" fill="black" fill-opacity="0.937255"/>
</g>
<defs>
<clipPath id="clip0_2485_8">
<rect width="246" height="267.141" rx="15" fill="white"/>
</clipPath>
</defs>
</svg>
